<svg version="1.1" preserveAspectRatio="none" xmlns="http://www.w3.org/2000/svg" width="500" height="500" viewBox="0 0 500 500"><rect width="100%" height="100%" fill="#FFA569" fill-opacity="1"/><svg viewBox="1610.4489 1040.7871 450.6623 296.2974" width="333" height="218.93784814039245" x="83.5px" y="140.5311px" xmlns="http://www.w3.org/2000/svg" xmlns:xlink="http://www.w3.org/1999/xlink" preserveAspectRatio="none"><defs></defs><style>.a0e3TXQnbxfillColor {fill:#DDDDDD;fill-opacity:0;}.aJqmuy15MzfillColor {fill:#DDDDDD;fill-opacity:0;}.companyName {fill:#FFFFFF;fill-opacity:1;}.icon1 {fill:#FFFFFF;fill-opacity:1;}.icon1-str {stroke:#FFFFFF;stroke-opacity:1;}.icon2 {fill:#D22626;fill-opacity:1;}.icon3 {fill:#393939;fill-opacity:1;}.icon3-str {stroke:#393939;stroke-opacity:1;}</style><g opacity="1" transform="rotate(0 1646.4489 1217.0845)">
<svg width="378.6623" height="120" x="1646.4489" y="1217.0845" version="1.1" preserveAspectRatio="none" viewBox="1.6016 -33.5937 116.1125 36.7969">
  <g transform="matrix(1 0 0 1 0 0)" class="companyName"><path id="id-D6z1nYkh3" d="M7.15-20.23L7.19-20.35L3.75-20.35Q1.84-20.35 1.84-21.91L1.84-21.91Q1.84-23.44 3.75-23.44L3.75-23.44L7.66-23.44L7.66-29.10L3.16-28.63Q1.80-28.63 1.80-30.20L1.80-30.20Q1.80-31.48 4.57-31.68L4.57-31.68Q10.66-32.30 12.54-32.93L12.54-32.93Q13.48-33.20 13.91-33.20L13.91-33.20Q15.66-33.20 15.66-31.56L15.66-31.56Q15.66-30.31 10.66-29.49L10.66-29.49L10.66-23.44L14.02-23.44Q15.86-23.44 15.86-21.91L15.86-21.91Q15.86-20.35 14.02-20.35L14.02-20.35L10.66-20.35L10.66-16.64Q11.05-17.23 11.72-17.23L11.72-17.23Q12.54-17.23 13.91-15.06Q15.27-12.89 15.27-12.15L15.27-12.15Q15.27-10.82 13.91-10.82L13.91-10.82Q13.16-10.82 12.62-12.03L12.62-12.03L10.82-15.31L10.66-15.66L10.66 1.52Q10.66 3.20 9.14 3.20L9.14 3.20Q7.66 3.20 7.66 1.52L7.66 1.52L7.66-14.77Q4.65-5.78 2.85-5.78L2.85-5.78Q1.60-5.78 1.60-7.38L1.60-7.38Q1.60-8.09 2.42-9.26L2.42-9.26Q5.55-13.71 7.15-20.23L7.15-20.23ZM21.91-1.13L21.91-3.09Q20.20-1.48 17.66 0.18Q15.12 1.84 14.10 1.84L14.10 1.84Q12.58 1.84 12.58 0.20L12.58 0.20Q12.58-0.78 14.49-1.80L14.49-1.80Q18.91-4.18 21.91-7.42L21.91-7.42L21.91-24.30Q21.91-26.17 23.44-26.17L23.44-26.17Q25-26.17 25-24.30L25-24.30L25-11.45Q28.75-17.27 30.78-28.98L30.78-28.98Q31.33-32.15 32.81-32.15L32.81-32.15Q34.57-32.15 34.57-30.63L34.57-30.63L34.34-29.14L34.14-28.44Q31.13-13.75 25-6.37L25-6.37L25-2.73Q25-1.76 25.47-1.37Q25.94-0.98 27.85-0.98L27.85-0.98Q30.31-0.98 30.82-1.72Q31.33-2.46 31.45-4.57L31.45-4.57Q31.52-6.25 31.76-6.56L31.76-6.56Q32.23-7.15 33.16-7.15L33.16-7.15Q34.96-7.15 34.96-5.23L34.96-5.23Q34.96-0.20 33.36 1.25L33.36 1.25Q32.27 2.23 28.20 2.23L28.20 2.23Q24.96 2.23 23.95 1.91L23.95 1.91Q21.91 1.37 21.91-1.13L21.91-1.13ZM22.97-33.01L22.97-33.01Q23.87-33.01 26.45-31.21Q29.02-29.41 29.02-28.44L29.02-28.44Q29.02-26.64 27.34-26.64L27.34-26.64Q26.64-26.64 25.37-27.70Q24.10-28.75 22.71-29.71Q21.33-30.66 21.33-31.52L21.33-31.52Q21.33-33.01 22.97-33.01ZM17.81-20.35L17.81-20.35Q19.30-20.35 19.30-18.87L19.30-18.87Q19.30-13.63 18.48-9.39Q17.66-5.16 16.29-5.16L16.29-5.16Q14.61-5.16 14.61-6.52L14.61-6.52Q14.61-6.99 14.96-7.97L14.96-7.97Q16.21-12.23 16.33-18.71L16.33-18.71Q16.41-20.35 17.81-20.35ZM33.71-18.98L33.71-18.98Q34.73-18.98 35.47-17.27L35.47-17.27Q38.40-10.43 38.40-8.87L38.40-8.87Q38.40-7.07 36.68-7.07L36.68-7.07Q35.94-7.07 35.47-7.62L35.47-7.62Q35.12-8.05 34.49-10.47L34.49-10.47Q34.30-11.48 33.18-14.34Q32.07-17.19 32.07-17.54L32.07-17.54Q32.07-18.98 33.71-18.98Z M46.25-29.69L57.89-29.69L57.89-31.80Q57.89-33.59 59.73-33.59L59.73-33.59Q61.60-33.59 61.60-31.80L61.60-31.80L61.60-29.69L73.75-29.69Q75.59-29.69 76.68-28.71L76.68-28.71Q77.66-27.66 77.66-25.78L77.66-25.78L77.66-22.07Q77.66-20.12 75.90-20.12Q74.14-20.12 74.14-22.07L74.14-22.07L74.14-24.96Q74.18-26.56 72.58-26.52L72.58-26.52L47.42-26.52Q45.82-26.56 45.82-24.96L45.82-24.96L45.82-22.07Q45.82-20.12 44.10-20.12L44.10-20.12Q42.34-20.12 42.34-22.07L42.34-22.07L42.34-25.63Q42.30-27.62 43.32-28.71L43.32-28.71Q44.41-29.69 46.25-29.69L46.25-29.69ZM72.50-9.34L61.60-9.34L61.60-1.72L76.33-1.72Q78.32-1.72 78.32-0.08Q78.32 1.56 76.33 1.56L76.33 1.56L43.67 1.56Q41.68 1.56 41.68-0.08Q41.68-1.72 43.67-1.72L43.67-1.72L58.13-1.72L58.13-9.34L47.54-9.34Q45.55-9.34 45.55-10.94Q45.55-12.54 47.54-12.54L47.54-12.54L58.13-12.54L58.13-18.63L47.66-18.63Q45.66-18.63 45.66-20.27Q45.66-21.91 47.66-21.91L47.66-21.91L72.34-21.91Q74.38-21.91 74.38-20.27Q74.38-18.63 72.34-18.63L72.34-18.63L61.60-18.63L61.60-12.54L72.50-12.54Q74.49-12.54 74.49-10.94Q74.49-9.34 72.50-9.34L72.50-9.34ZM68.55-8.48L68.55-8.48Q69.41-8.48 70.92-6.60Q72.42-4.73 72.42-4.02L72.42-4.02Q72.42-2.46 70.70-2.46L70.70-2.46Q69.84-2.46 69.18-3.40L69.18-3.40L67.38-5.90Q66.91-6.52 66.91-6.99L66.91-6.99Q66.91-8.48 68.55-8.48Z M87.89-8.05L87.89-1.99Q91.25-2.62 94.30-3.52L94.30-3.52L93.48-4.77Q92.81-5.70 92.81-6.09L92.81-6.09Q92.81-7.34 94.10-7.34L94.10-7.34Q95-7.34 97.29-4.00Q99.57-0.66 99.57 0.04L99.57 0.04Q99.57 1.45 98.09 1.45L98.09 1.45Q97.11 1.45 96.21-0.35L96.21-0.35L95.66-1.37L95.51-1.33Q93.52-0.59 88.77 0.76Q84.02 2.11 83.32 2.11L83.32 2.11Q81.64 2.11 81.64 0.43L81.64 0.43Q81.64-0.86 83.87-1.17L83.87-1.17L84.96-1.37L84.96-19.22Q84.96-22.11 87.81-22.11L87.81-22.11L89.73-22.11L89.73-24.49Q89.73-26.09 91.21-26.09Q92.70-26.09 92.70-24.49L92.70-24.49L92.70-22.11L94.61-22.11Q97.54-22.11 97.54-19.02L97.54-19.02L97.54-11.02Q97.50-8.05 94.61-8.05L94.61-8.05L87.89-8.05ZM87.89-13.98L87.89-10.47L93.48-10.47Q94.61-10.51 94.61-11.60L94.61-11.60L94.61-13.98L87.89-13.98ZM87.89-18.55L87.89-16.37L94.61-16.37L94.61-18.55Q94.57-19.65 93.48-19.69L93.48-19.69L89.02-19.69Q87.93-19.65 87.89-18.55L87.89-18.55ZM92.34-31.64L92.34-31.64L92.93-31.21Q98.32-27.34 98.32-26.29L98.32-26.29Q98.32-24.69 96.76-24.69L96.76-24.69Q96.09-24.69 95.08-25.74L95.08-25.74L91.17-29.22L91.02-29.38L90.20-28.16Q88.91-26.21 86.37-23.42Q83.83-20.63 83.05-20.63L83.05-20.63Q81.60-20.63 81.60-22.27L81.60-22.27Q81.60-23.09 82.54-23.95L82.54-23.95Q86.56-27.66 89.10-32.34L89.10-32.34Q89.84-33.59 90.82-33.59L90.82-33.59Q92.62-33.59 92.62-32.42L92.62-32.42Q92.62-32.19 92.34-31.64ZM101.76-28.63L106.13-28.63L106.13-31.60Q106.13-33.44 107.77-33.44L107.77-33.44Q109.45-33.44 109.45-31.60L109.45-31.60L109.45-28.63L114.26-28.63Q117.97-28.75 117.70-25.20L117.70-25.20L117.70-21.95Q117.70-20.20 116.13-20.20L116.13-20.20Q114.61-20.20 114.61-21.95L114.61-21.95L114.61-24.34Q114.57-25.66 113.24-25.70L113.24-25.70L102.77-25.70Q101.48-25.66 101.45-24.38L101.45-24.38L101.45-22.15Q101.45-20.47 99.96-20.47L99.96-20.47Q98.52-20.47 98.52-22.15L98.52-22.15L98.52-25.39Q98.52-28.63 101.76-28.63L101.76-28.63ZM104.14-11.95L104.14-9.06L113.40-9.06Q116.91-9.26 116.72-5.74L116.72-5.74L116.72-1.45Q116.91 2.07 113.40 1.88L113.40 1.88L104.45 1.88Q101.21 1.88 101.21-1.37L101.21-1.37L101.21-19.30Q101.21-22.34 104.22-22.34L104.22-22.34L111.76-22.34Q115.08-22.54 114.84-19.26L114.84-19.26L114.84-15.04Q115.08-11.72 111.76-11.95L111.76-11.95L104.14-11.95ZM112.38-6.33L104.14-6.33L104.14-2.19Q104.18-0.90 105.51-0.86L105.51-0.86L112.38-0.86Q113.63-0.90 113.63-2.11L113.63-2.11L113.63-5.08Q113.63-6.29 112.38-6.33L112.38-6.33ZM104.14-18.40L104.14-14.69L110.51-14.69Q111.76-14.73 111.76-15.94L111.76-15.94L111.76-18.36Q111.76-19.57 110.51-19.61L110.51-19.61L105.39-19.61Q104.18-19.57 104.14-18.40L104.14-18.40Z"/></g>
</svg>
</g><g opacity="1" transform="rotate(0 1685.7801 1040.7871)">
<svg width="300" height="146.2974" x="1685.7801" y="1040.7871" version="1.1" preserveAspectRatio="none" viewBox="710.5001831054688 15717 58580 28567">
  <g transform="matrix(1 0 0 1 0 0)" class="icon1"><defs></defs><g><path class="fil0" d="M29559 29986c40,43 81,88 123,133 98,106 208,226 307,335l106 -115c110,-119 222,-239 326,-349 -96,-98 -199,-206 -297,-308 -46,-48 -92,-96 -135,-142 -39,42 -81,85 -123,129 -100,104 -208,216 -307,318zm-464 673c-155,-168 -299,-322 -373,-398 -152,-155 -153,-404 0,-559 115,-118 355,-363 569,-587 61,-63 118,-124 169,-177 -398,-533 -767,-1032 -1103,-1503 -634,534 -1302,1028 -1965,1519 -297,220 -593,439 -884,660 291,221 587,440 884,660 784,580 1576,1166 2308,1815 240,-329 494,-672 762,-1030 -101,-111 -232,-253 -367,-399zm1428 394c291,336 572,675 842,1017 744,-670 1543,-1268 2330,-1858 267,-200 532,-399 793,-599 -261,-200 -526,-399 -793,-599 -663,-497 -1334,-1000 -1975,-1547 -376,497 -776,990 -1197,1476 53,56 113,119 176,184 209,218 438,453 562,579 152,155 153,404 0,559 -140,142 -359,375 -578,613 -54,59 -108,117 -160,174zm1330 1653l72 97c525,713 1001,1431 1417,2143 670,1147 1339,2421 1582,3722 252,1353 44,2707 -1084,3933 -104,114 -212,221 -323,323 -987,907 -2218,1360 -3450,1360 -1232,0 -2464,-453 -3450,-1360 -111,-102 -219,-210 -323,-323 -1128,-1227 -1336,-2581 -1084,-3933 243,-1300 911,-2575 1582,-3722 364,-623 773,-1249 1228,-1904 69,-99 140,-200 212,-302 -727,-652 -1524,-1242 -2314,-1826 -356,-264 -711,-526 -1058,-793 -626,505 -1209,1031 -1702,1612 -31,37 -63,75 -93,112 242,337 466,675 668,1009 204,337 393,681 564,1028 312,632 622,1336 736,2060 121,770 19,1543 -528,2249 -151,195 -319,362 -497,500 -426,330 -915,496 -1407,496l0 2c-490,0 -979,-166 -1407,-497 -178,-138 -346,-305 -497,-500 -547,-706 -649,-1479 -528,-2249 114,-724 425,-1428 736,-2060 218,-442 453,-901 719,-1348 139,-234 286,-465 443,-690 -337,-433 -698,-849 -1076,-1236 -158,-162 -319,-319 -482,-470 -185,155 -374,305 -565,448 -1761,1319 -4455,2314 -6979,2354 -1977,31 -3858,-517 -5143,-1936 -211,148 -417,301 -619,451 -1195,885 -2288,1695 -3915,1385 -794,-151 -1398,-463 -1822,-873 -436,-423 -679,-946 -740,-1509 -60,-548 55,-1128 331,-1682 355,-711 979,-1384 1846,-1888 8679,-5050 15783,732 16912,1650 60,49 101,83 112,90 195,140 388,290 580,448 252,-235 498,-480 735,-735 289,-310 564,-632 822,-961 -156,-224 -302,-454 -440,-686 -265,-448 -501,-907 -719,-1348 -312,-632 -622,-1336 -736,-2060 -121,-770 -19,-1543 528,-2249 151,-195 319,-362 497,-500 428,-331 916,-497 1407,-497l0 2c492,0 980,165 1407,496 178,138 346,305 497,500 547,706 649,1479 528,2249 -114,724 -425,1428 -736,2060 -119,241 -252,490 -399,745 -143,248 -295,496 -457,741 -121,184 -247,367 -378,548 31,39 63,77 95,115 493,580 1076,1107 1702,1612 347,-267 702,-529 1058,-793 670,-496 1346,-996 1979,-1534 -406,-591 -774,-1160 -1106,-1727 -670,-1147 -1339,-2421 -1582,-3722 -252,-1353 -44,-2707 1084,-3933 104,-114 212,-221 323,-323 987,-907 2218,-1360 3450,-1360 1232,0 2464,453 3450,1360 111,102 219,210 323,323 1128,1227 1336,2581 1084,3933 -243,1300 -912,2575 -1582,3722 -344,588 -728,1181 -1148,1771 638,549 1313,1055 1979,1554 324,243 646,484 962,728 625,-506 1206,-1032 1698,-1611 34,-40 68,-81 101,-121 -129,-179 -254,-360 -373,-541 -164,-250 -315,-494 -453,-731 -145,-250 -280,-501 -406,-752l-2 -3c-314,-632 -627,-1336 -741,-2059 -122,-770 -20,-1544 527,-2250 151,-195 319,-362 497,-500 428,-331 916,-497 1407,-497l0 2c492,0 980,165 1407,496 178,138 346,305 497,500 547,706 649,1479 528,2249 -114,724 -425,1428 -736,2060 -218,442 -453,901 -719,1348 -136,230 -281,457 -435,679 260,332 537,656 828,968 237,254 482,500 735,735 191,-158 385,-308 580,-448 11,-8 53,-42 112,-90 1129,-919 8233,-6701 16912,-1650 867,504 1492,1178 1846,1888 276,554 391,1134 331,1682 -61,563 -304,1086 -740,1509 -424,411 -1028,722 -1822,873 -1627,310 -2720,-500 -3915,-1385 -202,-150 -408,-302 -619,-451 -1285,1419 -3167,1967 -5143,1936 -2524,-40 -5219,-1034 -6979,-2354 -191,-143 -380,-293 -565,-448 -163,151 -323,308 -482,470 -379,389 -742,807 -1081,1243 155,223 301,452 438,683 265,448 501,907 719,1348 312,632 622,1336 736,2060 121,770 19,1543 -528,2249 -151,195 -319,362 -497,500 -426,330 -915,496 -1407,496l0 2c-490,0 -979,-166 -1407,-497 -178,-138 -346,-305 -497,-500 -547,-706 -649,-1480 -527,-2250 114,-723 427,-1426 741,-2059l1 0 1 -2c172,-344 364,-689 572,-1032 206,-339 426,-672 659,-996 -33,-40 -65,-80 -99,-119 -492,-579 -1073,-1105 -1698,-1611 -315,244 -638,486 -962,728 -787,589 -1586,1188 -2321,1856zm-572 569l-9 -12c-215,219 -422,447 -618,684 -40,48 -81,99 -123,152 203,282 395,570 576,860 241,387 461,781 655,1176 312,632 622,1336 736,2060 121,770 19,1543 -528,2249 -151,195 -319,362 -497,500 -426,330 -915,496 -1407,496l0 2c-490,0 -979,-166 -1407,-497 -178,-138 -346,-305 -497,-500 -547,-706 -649,-1479 -528,-2249 114,-724 425,-1428 736,-2060 166,-337 355,-680 567,-1041 188,-320 387,-644 602,-986 -22,-27 -59,-72 -110,-134 -194,-235 -399,-460 -614,-677 -47,67 -94,134 -141,201 -442,636 -839,1244 -1194,1851 -636,1088 -1269,2289 -1488,3462 -209,1122 -39,2241 887,3249 89,97 182,189 276,277 832,765 1871,1148 2910,1148 1039,0 2077,-383 2910,-1148 95,-87 187,-179 276,-277 926,-1008 1096,-2127 887,-3249 -219,-1174 -852,-2374 -1488,-3462 -406,-695 -866,-1390 -1371,-2074zm-497 -653c-252,-321 -514,-640 -783,-953 -246,330 -484,652 -714,969 260,257 509,526 744,809l7 -9c237,-286 486,-557 745,-816zm-1824 -5718c331,466 677,937 1042,1426 392,-457 767,-923 1122,-1395 -384,-360 -752,-742 -1092,-1154 -332,400 -692,771 -1072,1123zm-1478 -2255c306,524 644,1050 1016,1593 374,-353 725,-724 1042,-1123 -215,-342 -414,-665 -601,-985 -212,-361 -400,-704 -567,-1041 -312,-632 -622,-1336 -736,-2060 -121,-770 -19,-1543 528,-2249 151,-195 319,-362 497,-500 428,-331 916,-497 1407,-497l0 2c492,0 980,165 1407,496 178,138 346,305 497,500 547,706 649,1479 528,2249 -114,724 -425,1428 -736,2060 -194,394 -414,789 -655,1176 -180,290 -373,578 -576,861 328,412 687,794 1067,1156 381,-541 734,-1088 1054,-1635 636,-1088 1269,-2289 1488,-3462 209,-1122 39,-2241 -887,-3249 -89,-97 -182,-189 -276,-277 -832,-765 -1871,-1148 -2910,-1148 -1039,0 -2077,383 -2910,1148 -95,87 -187,179 -276,277 -926,1008 -1096,2127 -887,3249 219,1174 852,2374 1488,3462zm16113 6839c-6,8 -12,15 -18,23 1113,379 2311,613 3470,631 1715,27 3339,-422 4452,-1580 -206,-121 -418,-234 -640,-333 -1480,-662 -2937,-919 -4228,-688 -1181,212 -2231,839 -3037,1948zm-723 -241c1,-79 26,-159 76,-228 935,-1287 2161,-2016 3543,-2263 1454,-261 3071,18 4694,744 370,166 710,360 1032,567 52,13 103,37 148,73 28,22 52,46 72,73 289,196 565,400 835,600 1048,776 2007,1487 3293,1242 630,-120 1097,-355 1413,-661 296,-287 461,-641 502,-1021 43,-395 -45,-823 -253,-1241 -289,-579 -806,-1132 -1531,-1554 -8204,-4774 -14939,708 -16009,1579 -67,54 -113,92 -150,119 -146,105 -292,216 -437,333 143,117 287,231 433,340 660,495 1462,941 2338,1299zm-4435 -1196c149,-153 301,-302 454,-446 -247,-232 -486,-473 -717,-721 -258,-278 -507,-565 -744,-860 -491,576 -1054,1094 -1656,1589 600,494 1163,1011 1653,1585 320,-402 659,-787 1011,-1147zm-1011 2483c-167,241 -324,483 -472,726 -196,323 -377,649 -540,974l1 0c-287,578 -571,1214 -669,1831 -90,569 -19,1134 371,1638 109,141 228,260 353,357 282,219 602,328 919,328l0 2c316,0 635,-110 919,-330 125,-97 244,-216 353,-357 390,-504 461,-1070 371,-1639 -97,-615 -380,-1251 -665,-1829 -208,-423 -435,-863 -691,-1295 -81,-137 -165,-272 -252,-405zm-7800 -8804c129,221 270,452 422,697 132,-192 259,-386 381,-581 229,-369 436,-740 617,-1107 285,-578 568,-1214 665,-1829 90,-570 19,-1136 -371,-1639 -109,-141 -228,-260 -353,-357 -284,-220 -603,-330 -919,-330l0 2c-317,0 -637,109 -919,328 -125,97 -244,216 -353,357 -390,504 -461,1070 -371,1639 97,615 380,1251 665,1829 162,328 341,654 539,991zm-7057 7462c489,-573 1051,-1088 1649,-1579 -600,-492 -1162,-1008 -1653,-1583 -236,293 -482,578 -739,854 -231,248 -471,489 -717,721 154,144 305,293 454,446 349,358 687,741 1006,1141zm0 1334c-89,136 -174,274 -257,413 -256,432 -482,872 -691,1295 -285,578 -568,1214 -665,1829 -90,570 -19,1136 371,1639 109,141 228,260 353,357 282,219 602,328 919,328l0 2c316,0 635,-110 919,-330 125,-97 244,-216 353,-357 390,-504 461,-1070 371,-1639 -97,-615 -380,-1251 -665,-1829 -157,-319 -336,-643 -532,-968 -153,-253 -313,-500 -479,-740zm-2670 -2918c-145,-117 -291,-228 -437,-333 -37,-26 -83,-64 -150,-119 -1070,-871 -7805,-6353 -16009,-1579 -724,421 -1242,975 -1531,1554 -209,418 -296,846 -253,1241 41,380 206,734 502,1021 316,306 782,541 1413,661 1286,245 2245,-465 3293,-1242 270,-200 546,-404 835,-600 20,-27 45,-52 72,-73 45,-35 96,-59 148,-73 322,-207 662,-401 1032,-567 1623,-726 3240,-1005 4694,-744 1382,248 2608,977 3543,2263 50,69 75,148 76,228 876,-359 1678,-804 2338,-1299 146,-109 290,-223 433,-340zm-10758 620c-221,99 -434,212 -640,333 1113,1159 2737,1607 4452,1580 1160,-18 2357,-252 3470,-631 -6,-7 -12,-15 -18,-23 -806,-1109 -1856,-1736 -3037,-1948 -1291,-231 -2748,26 -4228,688zm28085 -3835c65,99 133,199 201,297 87,-133 170,-268 251,-404 256,-432 482,-872 691,-1295 285,-578 568,-1214 665,-1829 90,-570 19,-1136 -371,-1639 -109,-141 -228,-260 -353,-357 -284,-220 -603,-330 -919,-330l0 2c-317,0 -637,109 -919,328 -125,97 -244,216 -353,357 -390,504 -461,1069 -371,1638 97,616 381,1251 668,1828 119,236 247,473 384,710 139,240 282,472 428,694zm-7178 8406c-152,244 -293,476 -422,696 -198,338 -377,663 -539,991 -285,578 -568,1214 -665,1829 -90,570 -19,1136 371,1639 109,141 228,260 353,357 282,219 602,328 919,328l0 2c316,0 635,-110 919,-330 125,-97 244,-216 353,-357 390,-504 461,-1070 371,-1639 -97,-615 -380,-1251 -665,-1829 -181,-367 -388,-738 -617,-1107 -121,-195 -248,-389 -381,-581zm-7736 -8513c82,139 167,276 256,411 71,-101 139,-203 207,-305 153,-232 297,-466 432,-700 131,-227 255,-461 374,-701 285,-578 568,-1214 665,-1829 90,-570 19,-1136 -371,-1639 -109,-141 -228,-260 -353,-357 -284,-220 -603,-330 -919,-330l0 2c-317,0 -637,109 -919,328 -125,97 -244,216 -353,357 -390,504 -461,1070 -371,1639 97,615 380,1251 665,1829 208,423 435,863 691,1295z"></path></g></g>
</svg>
</g><g opacity="1" transform="rotate(0 1610.4489 1271.0845)">
<svg width="12" height="12" x="1610.4489" y="1271.0845" version="1.1" preserveAspectRatio="none" viewBox="0 0 12 12">
  <defs><rect x="1.32" y="1.32" width="9.36" height="9.36" rx="50%" ry="50%" id="id-Jqmuy15Mz1692270634275"></rect></defs><use class="aJqmuy15MzfillColor icon1-str" style="stroke-width:2.64;" xlink:href="#id-Jqmuy15Mz1692270634275"></use>
</svg>
</g><g opacity="1" transform="rotate(0 2049.1112 1271.0845)">
<svg width="12" height="12" x="2049.1112" y="1271.0845" version="1.1" preserveAspectRatio="none" viewBox="0 0 12 12">
  <defs><rect x="1.32" y="1.32" width="9.36" height="9.36" rx="50%" ry="50%" id="id-0e3TXQnbx1692270634275"></rect></defs><use class="a0e3TXQnbxfillColor icon1-str" style="stroke-width:2.64;" xlink:href="#id-0e3TXQnbx1692270634275"></use>
</svg>
</g></svg></svg>